<?xml version="1.0" standalone="no"?>
<!DOCTYPE svg PUBLIC "-//W3C//DTD SVG 20010904//EN"
 "http://www.w3.org/TR/2001/REC-SVG-20010904/DTD/svg10.dtd">
<svg version="1.0" xmlns="http://www.w3.org/2000/svg"
 width="700.000000pt" height="700.000000pt" viewBox="0 0 700.000000 700.000000"
 preserveAspectRatio="xMidYMid meet">
<metadata>
Created by potrace 1.14, written by Peter Selinger 2001-2017
</metadata>
<g transform="translate(0.000000,700.000000) scale(0.100000,-0.100000)"
fill="#000000" stroke="none">
<path d="M2016 4689 c-505 -52 -870 -404 -988 -953 -30 -137 -32 -444 -5 -581
99 -488 402 -850 835 -995 126 -42 253 -60 427 -60 306 0 551 54 780 173 l100
52 6 420 c6 448 8 470 59 553 25 40 90 71 166 79 l54 6 0 39 0 39 -62 -6 c-35
-3 -90 -8 -123 -11 -170 -15 -316 -86 -372 -182 -48 -81 -53 -127 -53 -523 l0
-367 -52 -22 c-175 -75 -304 -101 -513 -101 -180 0 -297 25 -423 91 -284 147
-431 415 -471 860 -38 411 34 768 203 1004 58 81 176 191 257 239 175 103 434
132 670 76 278 -66 459 -260 539 -576 10 -41 13 -43 47 -43 l36 0 -6 148 c-9
229 -39 318 -134 402 -123 108 -351 199 -573 229 -117 15 -306 20 -404 10z"/>
<path d="M3570 4587 l0 -34 79 -6 c146 -10 205 -56 235 -187 14 -56 16 -211
16 -1128 l0 -1064 488 5 c438 4 498 7 597 25 406 76 708 279 870 585 90 170
135 349 142 577 21 620 -293 1048 -876 1196 -217 56 -239 57 -918 61 l-633 4
0 -34z m1302 -125 c513 -137 796 -654 707 -1292 -16 -115 -54 -235 -108 -345
-175 -351 -512 -545 -911 -522 -95 6 -245 28 -292 42 -17 6 -18 40 -16 1048
l3 1041 45 13 c111 33 196 42 345 39 110 -3 171 -10 227 -24z"/>
</g>
</svg>
